<?xml version="1.0" standalone="no"?>
<!DOCTYPE svg PUBLIC "-//W3C//DTD SVG 20010904//EN"
 "http://www.w3.org/TR/2001/REC-SVG-20010904/DTD/svg10.dtd">
<svg version="1.0" xmlns="http://www.w3.org/2000/svg"
 width="1000.000000pt" height="309.000000pt" viewBox="0 0 1000.000000 309.000000"
 preserveAspectRatio="xMidYMid meet">

<g transform="translate(0.000000,309.000000) scale(0.100000,-0.100000)"
fill="#FF0000" stroke="none">
<path d="M6674 2762 c-100 -47 -164 -142 -164 -244 0 -108 54 -199 146 -244
46 -23 67 -26 137 -26 95 2 129 8 177 32 111 57 164 190 125 313 -21 68 -62
118 -123 154 -42 25 -58 28 -152 31 -86 2 -112 -1 -146 -16z"/>
<path d="M546 2683 c-6 -50 -15 -156 -41 -458 -9 -99 -22 -245 -30 -325 -31
-318 -68 -726 -106 -1175 -6 -71 -17 -193 -24 -270 -22 -223 -28 -305 -21
-305 3 0 39 42 80 93 79 98 130 161 260 321 45 54 151 186 237 293 l157 193
11 113 c6 61 13 150 17 197 9 129 30 152 58 62 8 -26 27 -78 41 -117 14 -38
32 -88 40 -110 7 -22 20 -56 28 -75 14 -31 16 -33 22 -15 29 88 84 174 154
245 76 77 136 115 236 151 28 10 51 25 53 33 3 15 -28 101 -164 451 -23 61
-63 164 -89 230 -25 66 -68 176 -94 245 -27 69 -61 158 -77 198 l-27 72 -358
0 -357 0 -6 -47z"/>
<path d="M2360 2686 c-10 -25 -26 -65 -34 -88 -8 -24 -21 -59 -30 -78 -8 -19
-52 -132 -97 -250 -134 -352 -214 -560 -249 -648 -18 -45 -31 -84 -29 -85 2
-1 36 -10 74 -20 158 -40 312 -151 381 -274 16 -29 32 -53 35 -53 4 0 16 28
28 62 21 59 52 144 72 196 11 29 30 24 40 -9 4 -13 12 -98 18 -188 6 -90 16
-172 22 -184 7 -11 55 -75 108 -141 53 -66 110 -139 126 -162 17 -23 84 -108
149 -190 66 -82 158 -198 205 -258 47 -60 98 -123 113 -140 l27 -31 0 50 c0
28 -4 95 -9 150 -12 123 -48 523 -55 625 -3 41 -12 143 -20 225 -50 531 -72
770 -96 1040 -6 66 -18 203 -27 305 l-17 185 -358 3 -358 2 -19 -44z"/>
<path d="M8977 1990 c-136 -22 -255 -78 -324 -153 -52 -57 -73 -96 -93 -176
-9 -36 -20 -66 -26 -67 -5 -2 -22 25 -39 59 -36 74 -130 177 -207 227 -31 20
-101 52 -155 70 -97 33 -101 33 -283 34 -194 1 -208 -1 -340 -54 -175 -69
-325 -216 -395 -387 -12 -30 -26 -54 -31 -54 -5 1 -12 98 -15 216 -4 118 -10
222 -13 230 -5 13 -48 15 -293 15 -158 0 -380 -3 -492 -7 l-204 -6 -17 -41
c-134 -307 -254 -574 -262 -584 -6 -7 -15 -11 -20 -10 -6 2 -74 145 -152 318
l-143 315 -279 3 c-153 1 -289 0 -301 -3 -22 -5 -22 -5 -4 -38 10 -17 162
-295 336 -617 175 -322 328 -604 342 -627 l24 -43 187 0 187 0 132 248 c72
136 197 373 278 527 81 154 150 282 152 285 18 20 23 -77 24 -465 1 -242 4
-474 8 -515 l6 -75 253 -3 252 -2 0 217 c0 120 3 228 6 241 7 25 24 30 24 7 0
-31 70 -161 118 -220 176 -214 434 -305 758 -266 190 23 312 69 431 162 35 27
65 49 68 49 3 0 3 -11 -1 -25 -5 -21 1 -29 55 -64 72 -46 202 -95 298 -112
111 -19 376 -6 496 25 219 56 330 178 344 376 13 183 -68 318 -243 405 -51 25
-195 75 -217 75 -21 0 -115 48 -136 69 -28 28 -28 84 1 111 40 37 195 21 320
-34 25 -10 39 -12 43 -5 4 6 19 7 36 4 28 -6 29 -4 94 124 36 72 65 137 65
145 0 18 -75 49 -185 76 -101 25 -362 36 -468 20z m-1049 -306 c52 -21 90 -60
118 -119 28 -59 30 -81 8 -89 -9 -3 -107 -6 -219 -6 -218 0 -222 1 -216 50 8
63 67 136 131 164 46 20 131 20 178 0z m697 -327 c37 -52 144 -123 250 -167
191 -78 225 -97 240 -134 20 -47 10 -91 -27 -118 -46 -32 -128 -21 -231 32
-45 24 -96 53 -113 67 -22 16 -34 20 -39 13 -4 -7 -20 -9 -39 -6 -29 6 -33 3
-64 -49 -18 -30 -36 -57 -41 -59 -5 -3 -78 27 -162 68 -193 92 -220 94 -298
24 -186 -167 -457 -85 -496 150 -4 23 -5 43 -3 44 1 2 221 5 488 8 l485 5 3
83 c2 45 6 82 10 81 4 0 21 -19 37 -42z"/>
<path d="M4130 1964 c-14 -2 -52 -9 -85 -15 -183 -32 -374 -147 -477 -287 -86
-117 -128 -245 -128 -392 1 -203 60 -352 194 -485 156 -156 356 -225 644 -225
489 0 824 285 824 699 0 185 -57 333 -176 459 -165 174 -331 240 -616 247 -85
2 -166 2 -180 -1z m227 -395 c126 -46 212 -189 201 -332 -18 -220 -221 -349
-406 -256 -93 46 -141 113 -162 227 -24 133 28 259 134 327 95 60 142 67 233
34z"/>
<path d="M1761 1400 c-272 -58 -410 -344 -279 -578 42 -73 82 -111 166 -155
126 -67 270 -67 406 -1 87 41 140 95 183 183 22 45 28 74 31 145 4 77 1 97
-22 155 -43 111 -131 195 -247 236 -55 19 -180 27 -238 15z"/>
</g>
</svg>
